 
http://www.imdb.com/title/tt1428538/



 Plot:In this spin on the fairy tale, Hansel & Gretel are now bounty hunters who track and kill witches all over the world. As the fabled Blood Moon approaches, the siblings encounter a new form of evil that might hold a secret to their past. 



Director:
 Tommy Wirkola

Writer:
 Tommy Wirkola

Stars:
 Jeremy Renner, Gemma Arterton, Peter Stormare

Genres:
 Action | Fantasy | Horror 

Country:
Germany|USA

Language:
English 



Format                                   : AVI
Format/Info                              : Audio Video Interleave
File size                                : 1.46 GiB
Duration                                 : 1h 27mn
Overall bit rate                         : 2 381 Kbps
Writing application                      : VirtualDubMod 1.5.10.2 (build 2540/release)
Writing library                          : VirtualDubMod build 2540/release

Video
ID                                       : 0
Format                                   : MPEG-4 Visual
Format profile                           : Advanced Simple@L5
Format settings, BVOP                    : 2
Format settings, QPel                    : No
Format settings, GMC                     : No warppoints
Format settings, Matrix                  : Default (H.263)
Muxing mode                              : Packed bitstream
Codec ID                                 : XVID
Codec ID/Hint                            : XviD
Duration                                 : 1h 27mn
Bit rate                                 : 1 923 Kbps
Width                                    : 720 pixels
Height                                   : 304 pixels
Display aspect ratio                     : 2.35:1
Frame rate                               : 23.976 fps
Color space                              : YUV
Chroma subsampling                       : 4:2:0
Bit depth                                : 8 bits
Scan type                                : Progressive
Compression mode                         : Lossy
Bits/(Pixel*Frame)                       : 0.366
Stream size                              : 1.18 GiB (81%)
Writing library                          : XviD 1.2.1 (UTC 2008-12-04)

Audio
ID                                       : 1
Format                                   : AC-3
Format/Info                              : Audio Coding 3
Mode extension                           : CM (complete main)
Format settings, Endianness              : Big
Codec ID                                 : 2000
Duration                                 : 1h 27mn
Bit rate mode                            : Constant
Bit rate                                 : 448 Kbps
Channel(s)                               : 6 channels
Channel positions                        : Front: L C R, Side: L R, LFE
Sampling rate                            : 48.0 KHz
Bit depth                                : 16 bits
Compression mode                         : Lossy
Stream size                              : 282 MiB (19%)
Alignment                                : Split accross interleaves
Interleave, duration                     : 42 ms (1.00 video frame)
Interleave, preload duration             : 500 ms



    	http://addpix.net/viewer.php?file=62292988753201582711.jpg
    	http://addpix.net/viewer.php?file=19315523631051818798.jpg
    	http://addpix.net/viewer.php?file=79624581008785862158.jpg
    	http://addpix.net/viewer.php?file=17638899393423867936.jpg
    	http://addpix.net/viewer.php?file=88220986832247973274.jpg